# xmcd
#
# Track frame offsets:
# 150
# 10938
# 29551
# 45115
# 62335
# 73744
# 86832
# 108354
# 129357
# 140578
# 156042
# 173799
# 191507
# 212048
# 225688
#
# Disc length: 3227 seconds
#
# Revision: 0
# Processed by: cddbd v1.5.2PL0 Copyright (c) Steve Scherf et al.
# Submitted via: Axialis_AX_CDPlayer 2.6
#
DISCID=c50c990f
DTITLE=Johnny Cash - Unearthed [CD5 of 5) Best Of Cash On American
DYEAR=1900
DGENRE=
TTITLE0=Delia's Gone
TTITLE1=Bird On A Wire
TTITLE2=Thirteen
TTITLE3=Rowboat
TTITLE4=The One Rose
TTITLE5=Rusty Cage
TTITLE6=Southern Accents
TTITLE7=Mercy Seat
TTITLE8=Solitary Man
TTITLE9=Wayfaring Stranger
TTITLE10=One
TTITLE11=Hung My Head
TTITLE12=The Man Comes Around
TTITLE13=We'll Meet Again
TTITLE14=Hurt
EXTD=www.johnnycash.com
EXTT0=
EXTT1=
EXTT2=
EXTT3=
EXTT4=
EXTT5=
EXTT6=
EXTT7=
EXTT8=
EXTT9=
EXTT10=
EXTT11=
EXTT12=
EXTT13=
EXTT14=
PLAYORDER=
